<svg width="195" height="41" viewBox="0 0 195 41" fill="none" xmlns="http://www.w3.org/2000/svg">
<circle cx="20.5" cy="20.5" r="20" fill="black" stroke="black"/>
<path d="M22.1963 28H20.1835V16.3968H17.5984V14.6603H22.1963V28Z" fill="white"/>
<circle cx="97.5" cy="20.5" r="20" fill="black" stroke="black"/>
<path d="M101.889 26.224V28H93.2652V26.8555L97.4289 22.3563C99.0076 20.6395 99.6193 19.712 99.6193 18.5083C99.6193 17.1861 98.6919 16.2587 97.3303 16.2587C95.8503 16.2587 94.8636 17.2256 94.8636 18.7056H92.91C92.91 16.2389 94.7649 14.4629 97.4092 14.4629C99.8956 14.4629 101.711 16.0811 101.711 18.2715C101.711 19.7909 101.139 20.8565 98.9484 23.1851L96.2647 26.224H101.889Z" fill="white"/>
<circle cx="174.5" cy="20.5" r="20" fill="black" stroke="black"/>
<path d="M173.939 28.1776C171.176 28.1776 169.242 26.5595 169.222 24.2112H171.176C171.255 25.6517 172.321 26.5792 173.939 26.5792C175.616 26.5792 176.642 25.6715 176.642 24.2309C176.642 22.8299 175.478 21.9419 173.643 21.9419H172.261V20.3435H173.544C175.044 20.3435 176.03 19.4752 176.03 18.1728C176.03 16.9099 175.142 16.0613 173.801 16.0613C172.439 16.0613 171.531 16.9296 171.472 18.2912H169.538C169.597 16.1008 171.452 14.4629 173.879 14.4629C176.445 14.4629 178.102 15.9429 178.102 18.0347C178.102 19.3371 177.333 20.3829 175.951 21.0341C177.708 21.5077 178.714 22.6523 178.714 24.1915C178.714 26.5595 176.78 28.1776 173.939 28.1776Z" fill="white"/>
<path d="M41 20.5H77M118 20.5H154" stroke="black"/>
</svg>
