<svg width="31" height="31" viewBox="0 0 31 31" fill="none" xmlns="http://www.w3.org/2000/svg">
<path d="M15.4999 25.8333H27.1249M21.1523 4.67839C21.6665 4.16419 22.3639 3.87532 23.0911 3.87532C23.8182 3.87532 24.5156 4.16419 25.0298 4.67839C25.544 5.19259 25.8329 5.89 25.8329 6.61719C25.8329 7.34437 25.544 8.04178 25.0298 8.55598L9.51693 24.0702C9.20964 24.3775 8.82979 24.6023 8.41255 24.7238L4.70289 25.8062C4.59174 25.8386 4.47393 25.8405 4.36177 25.8118C4.24962 25.7831 4.14725 25.7247 4.06538 25.6429C3.98351 25.561 3.92516 25.4586 3.89643 25.3465C3.86769 25.2343 3.86964 25.1165 3.90205 25.0054L4.98447 21.2957C5.10617 20.8789 5.33096 20.4995 5.63805 20.1926L21.1523 4.67839Z" stroke="black" stroke-width="2.58333" stroke-linecap="round" stroke-linejoin="round"/>
</svg>
