<?xml version="1.0" encoding="UTF-8"?>
<svg id="Layer_2" data-name="Layer 2" xmlns="http://www.w3.org/2000/svg" viewBox="0 0 27.33 32.36">
  <defs>
    <style>
      .cls-1 {
        fill: #b7202b;
      }
    </style>
  </defs>
  <g id="Layer_1-2" data-name="Layer 1">
    <path class="cls-1" d="M27.33,13.67C27.33,6.12,21.21,0,13.67,0S0,6.12,0,13.67c0,.25,0,.5.02.75h-.02c0,9.72,13.65,17.95,13.65,17.95h.02s13.65-8.23,13.65-17.96c0,0,0,0,0,0,.01-.24.02-.49.02-.73ZM13.67,19.09c-3,0-5.42-2.43-5.42-5.42s2.43-5.42,5.42-5.42,5.42,2.43,5.42,5.42-2.43,5.42-5.42,5.42Z"/>
  </g>
</svg>