<?xml version="1.0" encoding="UTF-8"?>
<svg id="Layer_2" data-name="Layer 2" xmlns="http://www.w3.org/2000/svg" viewBox="0 0 183.87 38.99">
  <defs>
    <style>
      .cls-1 {
        fill: #b7202b;
      }
    </style>
  </defs>
  <g id="Layer_1-2" data-name="Layer 1">
    <g id="postcode4">
      <path class="cls-1" d="M53.39,14.02c0-7.55-6.12-13.67-13.67-13.67s-13.67,6.12-13.67,13.67c0,.25,0,.5.02.75h-.02c0,9.72,13.65,17.95,13.65,17.95h.02s13.65-8.23,13.65-17.96c0,0,0,0,0,0,.01-.24.02-.49.02-.73ZM39.72,19.45c-3,0-5.42-2.43-5.42-5.42s2.43-5.42,5.42-5.42,5.42,2.43,5.42,5.42-2.43,5.42-5.42,5.42Z"/>
      <path d="M3.13,38.99c-.88,0-1.49-.35-1.84-1.05s-.61-1.79-.81-3.26c-.16-1.4-.29-3.17-.37-5.29-.08-2.12-.12-4.57-.12-7.35,0-2.22.03-4.2.1-5.93.07-1.73.15-3.2.25-4.41.2-1.76.48-2.91.86-3.45.38-.54.87-.81,1.49-.81.42,0,.74.17.96.51.21.34.33.79.37,1.35.1.91.18,1.49.25,1.71.06.23.2.34.39.34.13,0,.26-.04.39-.12.13-.08.25-.2.34-.37.88-1.14,1.91-2.03,3.09-2.67,1.18-.64,2.6-.96,4.26-.96,2.02,0,3.8.49,5.31,1.47s2.7,2.38,3.55,4.19c.85,1.81,1.27,4.01,1.27,6.59,0,2.71-.45,5.05-1.35,7.03-.9,1.98-2.13,3.49-3.7,4.53-1.57,1.05-3.35,1.57-5.34,1.57-1.44,0-2.6-.22-3.5-.66-.9-.44-1.59-.87-2.08-1.3-.49-.42-.85-.64-1.08-.64-.26,0-.44.1-.54.29-.1.2-.15.51-.15.93,0,.16.03.55.1,1.15.06.6.12,1.26.17,1.96.05.7.07,1.26.07,1.69,0,1.21-.24,2-.71,2.38-.47.38-1.02.56-1.64.56ZM11.31,28.07c2.25,0,3.93-.73,5.04-2.18,1.11-1.45,1.67-3.55,1.67-6.29,0-2.38-.58-4.29-1.74-5.73-1.16-1.44-2.78-2.16-4.87-2.16-.62,0-1.33.16-2.13.47-.8.31-1.56.81-2.28,1.49-.72.69-1.31,1.61-1.79,2.77-.47,1.16-.71,2.6-.71,4.33s.2,3.18.61,4.24c.41,1.06,1.11,1.84,2.11,2.33,1,.49,2.36.73,4.09.73Z"/>
      <g>
        <path d="M59.31,32.72c-.98,0-1.68-.2-2.11-.59-.42-.39-.64-.88-.64-1.47,0-.42.11-.77.32-1.03.21-.26.49-.47.83-.61.34-.15.69-.24,1.05-.27,2.42-.26,4.24-.65,5.49-1.18,1.24-.52,1.86-1.39,1.86-2.6,0-.85-.32-1.53-.96-2.03-.64-.51-1.42-.97-2.35-1.4-.93-.42-1.86-.91-2.79-1.47s-1.71-1.27-2.35-2.13c-.64-.86-.96-2-.96-3.4,0-1.73.5-3.13,1.49-4.21,1-1.08,2.29-1.86,3.87-2.35,1.58-.49,3.27-.73,5.07-.73,1.04,0,1.77.17,2.18.51.41.34.61.84.61,1.49,0,.33-.07.63-.22.91-.15.28-.38.5-.69.66-.31.16-.71.26-1.2.29-2.25.13-3.87.44-4.85.93s-1.47,1.19-1.47,2.11c0,.85.32,1.54.96,2.08.64.54,1.42,1.03,2.35,1.47.93.44,1.86.93,2.79,1.47.93.54,1.71,1.22,2.35,2.06s.96,1.92.96,3.26c0,1.44-.37,2.68-1.1,3.72-.73,1.05-1.69,1.9-2.87,2.57-1.18.67-2.43,1.16-3.77,1.47-1.34.31-2.63.47-3.87.47Z"/>
        <path d="M83.9,32.72c-2.15,0-3.81-.47-4.97-1.4-1.16-.93-1.96-2.2-2.4-3.8-.44-1.6-.66-3.4-.66-5.39s0-3.65.02-5.17c.02-1.52.02-2.9.02-4.14,0-.36-.06-.6-.17-.73-.12-.13-.3-.21-.56-.25-.52-.03-.99-.1-1.4-.2-.41-.1-.72-.29-.93-.59-.21-.29-.32-.73-.32-1.32,0-.75.23-1.27.69-1.57.46-.29,1.06-.44,1.81-.44.36,0,.63-.04.81-.12.18-.08.29-.32.32-.71.03-.39.06-.78.07-1.18.02-.39.04-.75.07-1.08.06-.78.29-1.36.69-1.74.39-.38.9-.56,1.52-.56.85,0,1.4.33,1.67.98.26.65.44,1.91.54,3.77.03.26.1.43.2.51.1.08.28.12.54.12h4.65c.88,0,1.59.14,2.13.42.54.28.81.81.81,1.59s-.29,1.38-.88,1.69c-.59.31-1.27.47-2.06.47h-4.85c-.2,0-.35.04-.47.12-.11.08-.17.25-.17.51-.03,2.09-.04,4.02-.02,5.78.02,1.76.02,3.09.02,3.97,0,2.29.38,3.85,1.13,4.7.75.85,1.71,1.27,2.89,1.27.72,0,1.27-.07,1.64-.2.38-.13.79-.2,1.25-.2.55,0,.98.16,1.27.47.29.31.44.79.44,1.44,0,.56-.18,1.06-.54,1.52-.36.46-.93.81-1.71,1.05-.78.24-1.81.37-3.09.37Z"/>
        <path d="M101.49,32.72c-2.12,0-4.03-.55-5.73-1.67-1.7-1.11-3.03-2.62-3.99-4.53-.96-1.91-1.44-4.07-1.44-6.49,0-2.55.48-4.78,1.44-6.69.96-1.91,2.3-3.4,4.02-4.48s3.67-1.62,5.85-1.62c1.86,0,3.32.24,4.38.71,1.06.47,1.59,1.12,1.59,1.94,0,.65-.18,1.16-.54,1.52-.29.29-.67.45-1.13.47-.46.02-1-.02-1.64-.12-.64-.1-1.41-.15-2.33-.15-1.18,0-2.29.29-3.33.88-1.05.59-1.89,1.49-2.52,2.72-.64,1.22-.97,2.8-1,4.73.03,1.89.37,3.45,1,4.68.64,1.22,1.48,2.13,2.52,2.72,1.04.59,2.16.88,3.33.88.98,0,1.78-.05,2.4-.15.62-.1,1.14-.15,1.57-.17.42-.02.78.14,1.08.47.23.2.38.42.47.69.08.26.12.56.12.88,0,.52-.24,1-.73,1.42-.49.42-1.19.76-2.11,1-.91.24-2.01.37-3.28.37Z"/>
        <path d="M121.08,32.72c-2.19,0-4.17-.52-5.95-1.57-1.78-1.04-3.19-2.54-4.24-4.48-1.05-1.94-1.57-4.24-1.57-6.88s.52-4.95,1.57-6.81c1.04-1.86,2.45-3.28,4.21-4.26,1.76-.98,3.75-1.47,5.98-1.47s4.23.49,6.02,1.47c1.8.98,3.23,2.39,4.31,4.24,1.08,1.85,1.62,4.11,1.62,6.78s-.54,4.94-1.62,6.88c-1.08,1.94-2.52,3.45-4.31,4.51-1.8,1.06-3.8,1.59-6.02,1.59ZM121.08,28.21c2.12,0,3.84-.77,5.14-2.33,1.31-1.55,1.96-3.6,1.96-6.15s-.66-4.39-1.98-5.83c-1.32-1.44-3.04-2.15-5.17-2.15-1.99,0-3.63.72-4.92,2.15-1.29,1.44-1.93,3.38-1.93,5.83s.62,4.6,1.86,6.15c1.24,1.55,2.92,2.33,5.04,2.33Z"/>
        <path d="M145.96,32.52c-1.93,0-3.66-.51-5.19-1.52-1.54-1.01-2.73-2.47-3.6-4.38s-1.3-4.22-1.3-6.93c0-2.55.42-4.75,1.25-6.61s2-3.29,3.5-4.29,3.23-1.49,5.19-1.49c1.5,0,2.81.23,3.92.69,1.11.46,2.07,1.19,2.89,2.2.1.1.2.18.29.24.1.07.21.1.34.1.29,0,.44-.41.44-1.22,0-.52,0-1.18-.02-1.96-.02-.78-.03-1.57-.05-2.38-.02-.8-.02-1.48-.02-2.03,0-1.18.2-1.96.59-2.35s.91-.59,1.57-.59c.75,0,1.32.21,1.71.64.39.42.64,1.06.73,1.91.13,1.57.23,3.31.29,5.22s.11,3.87.12,5.88c.02,2.01.02,3.96.02,5.85s-.02,3.8-.07,5.73c-.05,1.93-.14,3.59-.27,5-.13.75-.38,1.32-.76,1.71-.38.39-.87.59-1.49.59-.56,0-1.01-.23-1.37-.69-.36-.46-.57-1.03-.64-1.71-.1-.82-.29-1.22-.59-1.22-.23,0-.46.13-.69.39-.85,1.08-1.83,1.89-2.94,2.42-1.11.54-2.4.81-3.87.81ZM147.23,28.07c.65,0,1.37-.15,2.15-.44s1.54-.76,2.28-1.4c.73-.64,1.34-1.49,1.81-2.55.47-1.06.71-2.34.71-3.85s-.24-2.72-.71-3.75c-.47-1.03-1.08-1.86-1.81-2.5-.73-.64-1.49-1.1-2.28-1.4s-1.5-.44-2.15-.44c-2.09,0-3.71.73-4.85,2.18-1.14,1.45-1.71,3.42-1.71,5.9s.57,4.51,1.71,6c1.14,1.49,2.76,2.23,4.85,2.23Z"/>
        <path d="M175.54,32.72c-2.42,0-4.46-.4-6.12-1.2-1.67-.8-3-1.84-3.99-3.13-1-1.29-1.71-2.68-2.16-4.16-.44-1.49-.66-2.9-.66-4.24s.2-2.69.59-4.16c.39-1.47,1.03-2.86,1.91-4.16.88-1.31,2.07-2.37,3.58-3.18,1.5-.82,3.36-1.22,5.58-1.22s3.99.45,5.41,1.35c1.42.9,2.47,2.11,3.16,3.65.69,1.54,1.03,3.3,1.03,5.29,0,1.14-.34,2.07-1.03,2.77-.69.7-1.65,1.05-2.89,1.05-2.16,0-4.26-.02-6.32-.05-2.06-.03-3.72-.05-5-.05-.36,0-.6.07-.73.2s-.2.33-.2.59c0,.62.14,1.3.42,2.03.28.73.72,1.43,1.32,2.08.6.65,1.41,1.18,2.42,1.59,1.01.41,2.25.61,3.72.61,1.01,0,1.81-.03,2.4-.1.59-.07,1.13-.13,1.62-.2.49-.06,1.04-.1,1.67-.1.75,0,1.28.16,1.59.49.31.33.47.77.47,1.32,0,.85-.62,1.55-1.86,2.11-1.24.55-3.22.83-5.93.83ZM174.07,17.63c1.53,0,2.68-.04,3.43-.12.75-.08,1.24-.23,1.47-.44.23-.21.34-.53.34-.96,0-1.34-.45-2.46-1.35-3.35-.9-.9-2.13-1.35-3.7-1.35-1.34,0-2.48.25-3.43.73-.95.49-1.67,1.12-2.18,1.89-.51.77-.76,1.59-.76,2.47,0,.33.11.57.34.73.23.16.78.27,1.67.32.88.05,2.27.07,4.16.07Z"/>
      </g>
    </g>
  </g>
</svg>